<?xml version="1.0" standalone="no"?>
<svg xmlns:xlink="http://www.w3.org/1999/xlink" id="wave" style="transform:rotate(180deg); transition: 0.3s" viewBox="0 0 1440 210" version="1.1" xmlns="http://www.w3.org/2000/svg"><defs><linearGradient id="sw-gradient-0" x1="0" x2="0" y1="1" y2="0"><stop stop-color="rgba(0, 0, 0, 1)" offset="0%"/><stop stop-color="rgba(255, 255, 255, 1)" offset="100%"/></linearGradient></defs><path style="transform:translate(0, 0px); opacity:1" fill="url(#sw-gradient-0)" d="M0,168L60,150.5C120,133,240,98,360,70C480,42,600,21,720,10.5C840,0,960,0,1080,7C1200,14,1320,28,1440,35C1560,42,1680,42,1800,56C1920,70,2040,98,2160,98C2280,98,2400,70,2520,77C2640,84,2760,126,2880,136.5C3000,147,3120,126,3240,122.5C3360,119,3480,133,3600,140C3720,147,3840,147,3960,136.5C4080,126,4200,105,4320,105C4440,105,4560,126,4680,119C4800,112,4920,77,5040,52.5C5160,28,5280,14,5400,38.5C5520,63,5640,126,5760,136.5C5880,147,6000,105,6120,80.5C6240,56,6360,49,6480,70C6600,91,6720,140,6840,157.5C6960,175,7080,161,7200,157.5C7320,154,7440,161,7560,147C7680,133,7800,98,7920,91C8040,84,8160,105,8280,126C8400,147,8520,168,8580,178.5L8640,189L8640,210L8580,210C8520,210,8400,210,8280,210C8160,210,8040,210,7920,210C7800,210,7680,210,7560,210C7440,210,7320,210,7200,210C7080,210,6960,210,6840,210C6720,210,6600,210,6480,210C6360,210,6240,210,6120,210C6000,210,5880,210,5760,210C5640,210,5520,210,5400,210C5280,210,5160,210,5040,210C4920,210,4800,210,4680,210C4560,210,4440,210,4320,210C4200,210,4080,210,3960,210C3840,210,3720,210,3600,210C3480,210,3360,210,3240,210C3120,210,3000,210,2880,210C2760,210,2640,210,2520,210C2400,210,2280,210,2160,210C2040,210,1920,210,1800,210C1680,210,1560,210,1440,210C1320,210,1200,210,1080,210C960,210,840,210,720,210C600,210,480,210,360,210C240,210,120,210,60,210L0,210Z"/><defs><linearGradient id="sw-gradient-1" x1="0" x2="0" y1="1" y2="0"><stop stop-color="rgba(0, 0, 0, 1)" offset="0%"/><stop stop-color="rgba(0, 0, 0, 0.64)" offset="100%"/></linearGradient></defs><path style="transform:translate(0, 50px); opacity:0.9" fill="url(#sw-gradient-1)" d="M0,21L60,28C120,35,240,49,360,66.5C480,84,600,105,720,98C840,91,960,56,1080,38.5C1200,21,1320,21,1440,45.5C1560,70,1680,119,1800,119C1920,119,2040,70,2160,45.5C2280,21,2400,21,2520,38.5C2640,56,2760,91,2880,112C3000,133,3120,140,3240,150.5C3360,161,3480,175,3600,175C3720,175,3840,161,3960,150.5C4080,140,4200,133,4320,140C4440,147,4560,168,4680,168C4800,168,4920,147,5040,119C5160,91,5280,56,5400,66.5C5520,77,5640,133,5760,133C5880,133,6000,77,6120,77C6240,77,6360,133,6480,143.5C6600,154,6720,119,6840,105C6960,91,7080,98,7200,94.5C7320,91,7440,77,7560,80.5C7680,84,7800,105,7920,115.5C8040,126,8160,126,8280,105C8400,84,8520,42,8580,21L8640,0L8640,210L8580,210C8520,210,8400,210,8280,210C8160,210,8040,210,7920,210C7800,210,7680,210,7560,210C7440,210,7320,210,7200,210C7080,210,6960,210,6840,210C6720,210,6600,210,6480,210C6360,210,6240,210,6120,210C6000,210,5880,210,5760,210C5640,210,5520,210,5400,210C5280,210,5160,210,5040,210C4920,210,4800,210,4680,210C4560,210,4440,210,4320,210C4200,210,4080,210,3960,210C3840,210,3720,210,3600,210C3480,210,3360,210,3240,210C3120,210,3000,210,2880,210C2760,210,2640,210,2520,210C2400,210,2280,210,2160,210C2040,210,1920,210,1800,210C1680,210,1560,210,1440,210C1320,210,1200,210,1080,210C960,210,840,210,720,210C600,210,480,210,360,210C240,210,120,210,60,210L0,210Z"/></svg>