<?xml version="1.0" standalone="no"?>
<svg xmlns:xlink="http://www.w3.org/1999/xlink" id="wave" style="transform:rotate(0deg); transition: 0.3s" viewBox="0 0 1440 220" version="1.1" xmlns="http://www.w3.org/2000/svg"><defs><linearGradient id="sw-gradient-0" x1="0" x2="0" y1="1" y2="0"><stop stop-color="rgba(0, 0, 0, 1)" offset="0%"/><stop stop-color="rgba(180.293, 180.293, 180.293, 1)" offset="100%"/></linearGradient></defs><path style="transform:translate(0, 0px); opacity:1" fill="url(#sw-gradient-0)" d="M0,66L48,55C96,44,192,22,288,14.7C384,7,480,15,576,33C672,51,768,81,864,106.3C960,132,1056,154,1152,146.7C1248,139,1344,103,1440,73.3C1536,44,1632,22,1728,36.7C1824,51,1920,103,2016,117.3C2112,132,2208,110,2304,91.7C2400,73,2496,59,2592,66C2688,73,2784,103,2880,113.7C2976,125,3072,117,3168,117.3C3264,117,3360,125,3456,117.3C3552,110,3648,88,3744,69.7C3840,51,3936,37,4032,51.3C4128,66,4224,110,4320,106.3C4416,103,4512,51,4608,36.7C4704,22,4800,44,4896,51.3C4992,59,5088,51,5184,47.7C5280,44,5376,44,5472,58.7C5568,73,5664,103,5760,128.3C5856,154,5952,176,6048,154C6144,132,6240,66,6336,33C6432,0,6528,0,6624,29.3C6720,59,6816,117,6864,146.7L6912,176L6912,220L6864,220C6816,220,6720,220,6624,220C6528,220,6432,220,6336,220C6240,220,6144,220,6048,220C5952,220,5856,220,5760,220C5664,220,5568,220,5472,220C5376,220,5280,220,5184,220C5088,220,4992,220,4896,220C4800,220,4704,220,4608,220C4512,220,4416,220,4320,220C4224,220,4128,220,4032,220C3936,220,3840,220,3744,220C3648,220,3552,220,3456,220C3360,220,3264,220,3168,220C3072,220,2976,220,2880,220C2784,220,2688,220,2592,220C2496,220,2400,220,2304,220C2208,220,2112,220,2016,220C1920,220,1824,220,1728,220C1632,220,1536,220,1440,220C1344,220,1248,220,1152,220C1056,220,960,220,864,220C768,220,672,220,576,220C480,220,384,220,288,220C192,220,96,220,48,220L0,220Z"/><defs><linearGradient id="sw-gradient-1" x1="0" x2="0" y1="1" y2="0"><stop stop-color="rgba(0, 0, 0, 1)" offset="0%"/><stop stop-color="rgba(0, 0, 0, 1)" offset="100%"/></linearGradient></defs><path style="transform:translate(0, 50px); opacity:0.9" fill="url(#sw-gradient-1)" d="M0,176L48,168.7C96,161,192,147,288,128.3C384,110,480,88,576,77C672,66,768,66,864,84.3C960,103,1056,139,1152,157.7C1248,176,1344,176,1440,179.7C1536,183,1632,191,1728,172.3C1824,154,1920,110,2016,102.7C2112,95,2208,125,2304,146.7C2400,169,2496,183,2592,179.7C2688,176,2784,154,2880,135.7C2976,117,3072,103,3168,110C3264,117,3360,147,3456,157.7C3552,169,3648,161,3744,143C3840,125,3936,95,4032,84.3C4128,73,4224,81,4320,99C4416,117,4512,147,4608,146.7C4704,147,4800,117,4896,106.3C4992,95,5088,103,5184,121C5280,139,5376,169,5472,172.3C5568,176,5664,154,5760,124.7C5856,95,5952,59,6048,36.7C6144,15,6240,7,6336,33C6432,59,6528,117,6624,132C6720,147,6816,117,6864,102.7L6912,88L6912,220L6864,220C6816,220,6720,220,6624,220C6528,220,6432,220,6336,220C6240,220,6144,220,6048,220C5952,220,5856,220,5760,220C5664,220,5568,220,5472,220C5376,220,5280,220,5184,220C5088,220,4992,220,4896,220C4800,220,4704,220,4608,220C4512,220,4416,220,4320,220C4224,220,4128,220,4032,220C3936,220,3840,220,3744,220C3648,220,3552,220,3456,220C3360,220,3264,220,3168,220C3072,220,2976,220,2880,220C2784,220,2688,220,2592,220C2496,220,2400,220,2304,220C2208,220,2112,220,2016,220C1920,220,1824,220,1728,220C1632,220,1536,220,1440,220C1344,220,1248,220,1152,220C1056,220,960,220,864,220C768,220,672,220,576,220C480,220,384,220,288,220C192,220,96,220,48,220L0,220Z"/></svg>